<svg id="Layer_1" data-name="Layer 1" xmlns="http://www.w3.org/2000/svg" viewBox="0 0 100 100"><defs><style>.cls-1{fill:#009502;}.cls-2{fill:#005c01;}.cls-3{fill:#004e4f;}.cls-4{fill:#008081;}.cls-5{fill:#a2009b;}</style></defs><title>teal-food-pumpkin</title><rect class="cls-1" x="46.22" y="8.07" width="7.43" height="12.04"/><rect class="cls-2" x="46.22" y="8.07" width="3.9" height="12.04"/><circle class="cls-3" cx="30.77" cy="53.84" r="28.48"/><circle class="cls-4" cx="69.23" cy="53.84" r="28.48"/><ellipse class="cls-4" cx="50" cy="54.86" rx="38.46" ry="37.02"/><path class="cls-3" d="M50,91.88c-21.24,0-38.46-16.58-38.46-37s17.22-37,38.46-37"/><circle class="cls-3" cx="30.89" cy="53.84" r="28.48"/><circle class="cls-4" cx="69.23" cy="53.84" r="28.48"/><ellipse class="cls-4" cx="50.13" cy="54.86" rx="38.46" ry="37.02"/><path class="cls-3" d="M50.13,91.88c-21.25,0-38.47-16.58-38.47-37s17.22-37,38.47-37"/><polygon class="cls-5" points="35.38 32.99 44.92 49.53 25.83 49.53 35.38 32.99"/><polygon class="cls-5" points="65.13 32.99 74.67 49.53 55.58 49.53 65.13 32.99"/><polygon class="cls-5" points="50.06 49.53 56.17 60.11 43.95 60.11 50.06 49.53"/><path class="cls-5" d="M65.3,66.15l-6.11,7.06-6.11-7.06H47.19l-6.11,7.06L35,66.15h-.15a15.24,15.24,0,1,0,30.48,0Z"/></svg>