<svg xmlns="http://www.w3.org/2000/svg" viewBox="0 0 500 500"><defs><style>.cls-1{fill:#242424;}.cls-2{fill:#009502;}.cls-3{fill:#005c01;}.cls-4{fill:#c78d06;}.cls-5{fill:#e0e000;}.cls-6{fill:#5c2100;}</style></defs><title>king-choc-mapmarker</title><g id="Layer_1" data-name="Layer 1"><path class="cls-1" d="M250,328.83a118.83,118.83,0,0,1-73.63-25.23l73.82,122L324.38,303A118.81,118.81,0,0,1,250,328.83Z"/><path d="M249.62,328.53A118.88,118.88,0,0,1,176,303.31l73.82,122"/><rect class="cls-2" x="238.56" y="75" width="22.5" height="36.5"/><rect class="cls-3" x="238.56" y="75" width="11.82" height="36.5"/><circle class="cls-4" cx="191.72" cy="213.7" r="86.3"/><circle class="cls-5" cx="308.28" cy="213.7" r="86.3"/><ellipse class="cls-5" cx="250" cy="216.77" rx="116.56" ry="112.18"/><path class="cls-4" d="M250,329c-64.37,0-116.56-50.22-116.56-112.18S185.63,104.59,250,104.59"/></g><g id="Layer_2" data-name="Layer 2"><polygon class="cls-6" points="205.3 149.51 234.23 199.61 176.38 199.61 205.3 149.51"/><polygon class="cls-6" points="295.45 149.51 324.38 199.61 266.53 199.61 295.45 149.51"/><polygon class="cls-6" points="249.81 199.61 268.32 231.68 231.3 231.68 249.81 199.61"/><path class="cls-6" d="M296,250l-18.51,21.38L259,250H241.1l-18.51,21.38L204.07,250h-.44A46.18,46.18,0,1,0,296,250Z"/></g></svg>