<svg id="Layer_1" data-name="Layer 1" xmlns="http://www.w3.org/2000/svg" viewBox="0 0 100 100"><defs><style>.cls-1{fill:#009502;}.cls-2{fill:#005c01;}.cls-3{fill:#004e4f;}.cls-4{fill:#008081;}.cls-5{fill:#c78d06;}.cls-6{fill:#e0e000;}.cls-7{fill:#ff4fab;}</style></defs><title>king-candy-image</title><rect class="cls-1" x="46.54" y="7" width="7.43" height="12.04"/><rect class="cls-2" x="46.54" y="7" width="3.9" height="12.04"/><circle class="cls-3" cx="31.08" cy="52.77" r="28.48"/><circle class="cls-4" cx="69.55" cy="52.77" r="28.48"/><ellipse class="cls-4" cx="50.31" cy="53.79" rx="38.46" ry="37.02"/><path class="cls-3" d="M50.31,90.81c-21.24,0-38.46-16.58-38.46-37s17.22-37,38.46-37"/><circle class="cls-5" cx="31.21" cy="52.77" r="28.48"/><circle class="cls-6" cx="69.55" cy="52.77" r="28.48"/><ellipse class="cls-6" cx="50.44" cy="53.79" rx="38.46" ry="37.02"/><path class="cls-5" d="M50.44,90.81C29.19,90.81,12,74.23,12,53.79s17.22-37,38.47-37"/><polygon class="cls-7" points="35.69 31.92 45.23 48.45 26.14 48.45 35.69 31.92"/><polygon class="cls-7" points="65.44 31.92 74.98 48.45 55.89 48.45 65.44 31.92"/><polygon class="cls-7" points="50.38 48.45 56.48 59.04 44.27 59.04 50.38 48.45"/><path class="cls-7" d="M65.61,65.08l-6.1,7.06L53.4,65.08H47.5l-6.11,7.06-6.11-7.06h-.14a15.24,15.24,0,1,0,30.47,0Z"/></svg>