<svg xmlns="http://www.w3.org/2000/svg" viewBox="0 0 500 500"><defs><style>.cls-1{opacity:0.7;}.cls-2{fill:#242424;}.cls-3{fill:#009502;}.cls-4{fill:#005c01;}.cls-5{fill:#ff7408;}.cls-6{fill:#c75b06;}.cls-7{fill:#a2009b;}</style></defs><title>regular-food-mapmarker-f</title><g id="Layer_2" data-name="Layer 2"><g class="cls-1"><path class="cls-2" d="M249.62,329l.19,96,.39.64,74-122.34A118.87,118.87,0,0,1,250,329Z"/><path d="M176.14,303.55l73.67,121.76V425l-.19-96A118.88,118.88,0,0,1,176.14,303.55Z"/><path class="cls-3" d="M261.06,105.09V75H250.38v29.59Q255.78,104.6,261.06,105.09Z"/><path class="cls-4" d="M250.38,104.59V75H238.56v30.13c3.76-.36,7.58-.54,11.44-.54Z"/><path class="cls-5" d="M394.59,213.7a86.33,86.33,0,0,0-72.69-85.23,118.55,118.55,0,0,0-60.84-23.38q-5.28-.48-10.68-.5H250v95.35l18.32,31.74H250V250h9l18.52,21.38L296,250h0a46.18,46.18,0,0,1-46,46.18V329a118.87,118.87,0,0,0,74.22-25.68q3.9-3.11,7.5-6.52A86.33,86.33,0,0,0,394.59,213.7ZM266.53,199.61l28.92-50.1,28.93,50.1Z"/><path class="cls-6" d="M249.62,329H250V296.18h-.19A46.19,46.19,0,0,1,203.63,250h.44l18.52,21.38L241.1,250H250V231.68H231.3l18.51-32.07.19.33V104.59c-3.86,0-7.68.18-11.44.54a118.47,118.47,0,0,0-60.46,23.34,86.3,86.3,0,0,0-9.82,168.28q3.76,3.57,7.86,6.8A118.88,118.88,0,0,0,249.62,329ZM176.38,199.61l28.92-50.1,28.93,50.1Z"/><polygon class="cls-7" points="205.3 149.51 176.38 199.61 234.23 199.61 205.3 149.51"/><polygon class="cls-7" points="295.45 149.51 266.53 199.61 324.38 199.61 295.45 149.51"/><polygon class="cls-7" points="231.3 231.68 250 231.68 268.32 231.68 250 199.94 249.81 199.61 231.3 231.68"/><path class="cls-7" d="M222.59,271.38,204.07,250h-.44a46.19,46.19,0,0,0,46.18,46.18H250A46.18,46.18,0,0,0,296,250h0l-18.51,21.38L259,250H241.1Z"/></g></g></svg>