<svg id="Layer_1" data-name="Layer 1" xmlns="http://www.w3.org/2000/svg" viewBox="0 0 100 100"><defs><style>.cls-1{fill:#009502;}.cls-2{fill:#005c01;}.cls-3{fill:#004e4f;}.cls-4{fill:#008081;}.cls-5{fill:#c75b06;}.cls-6{fill:#ff7408;}.cls-7{fill:#5c2100;}</style></defs><title>reg-choc-pumpkin</title><rect class="cls-1" x="46.48" y="7.65" width="7.43" height="12.04"/><rect class="cls-2" x="46.48" y="7.65" width="3.9" height="12.04"/><circle class="cls-3" cx="31.02" cy="53.42" r="28.48"/><circle class="cls-4" cx="69.48" cy="53.42" r="28.48"/><ellipse class="cls-4" cx="50.25" cy="54.43" rx="38.46" ry="37.02"/><path class="cls-3" d="M50.25,91.45c-21.24,0-38.46-16.57-38.46-37s17.22-37,38.46-37"/><circle class="cls-5" cx="31.14" cy="53.42" r="28.48"/><circle class="cls-6" cx="69.48" cy="53.42" r="28.48"/><ellipse class="cls-6" cx="50.38" cy="54.43" rx="38.46" ry="37.02"/><path class="cls-5" d="M50.38,91.45c-21.25,0-38.47-16.57-38.47-37s17.22-37,38.47-37"/><polygon class="cls-7" points="35.63 32.57 45.17 49.1 26.08 49.1 35.63 32.57"/><polygon class="cls-7" points="65.38 32.57 74.92 49.1 55.83 49.1 65.38 32.57"/><polygon class="cls-7" points="50.31 49.1 56.42 59.68 44.2 59.68 50.31 49.1"/><path class="cls-7" d="M65.55,65.73l-6.11,7-6.11-7H47.44l-6.11,7-6.11-7h-.15a15.24,15.24,0,0,0,30.48,0Z"/></svg>