<svg id="Layer_1" data-name="Layer 1" xmlns="http://www.w3.org/2000/svg" viewBox="0 0 100 100"><defs><style>.cls-1{fill:#009502;}.cls-2{fill:#005c01;}.cls-3{fill:#004e4f;}.cls-4{fill:#008081;}.cls-5{fill:#c75b06;}.cls-6{fill:#ff7408;}.cls-7{fill:#a2009b;}</style></defs><title>reg-food-pumpkin</title><rect class="cls-1" x="46.35" y="6.55" width="7.43" height="12.04"/><rect class="cls-2" x="46.35" y="6.55" width="3.9" height="12.04"/><circle class="cls-3" cx="30.89" cy="52.32" r="28.48"/><circle class="cls-4" cx="69.36" cy="52.32" r="28.48"/><ellipse class="cls-4" cx="50.13" cy="53.34" rx="38.46" ry="37.02"/><path class="cls-3" d="M50.13,90.36c-21.25,0-38.47-16.58-38.47-37s17.22-37,38.47-37"/><circle class="cls-5" cx="31.02" cy="52.32" r="28.48"/><circle class="cls-6" cx="69.36" cy="52.32" r="28.48"/><ellipse class="cls-6" cx="50.25" cy="53.34" rx="38.46" ry="37.02"/><path class="cls-5" d="M50.25,90.36c-21.24,0-38.46-16.58-38.46-37s17.22-37,38.46-37"/><polygon class="cls-7" points="35.5 31.47 45.05 48.01 25.95 48.01 35.5 31.47"/><polygon class="cls-7" points="65.25 31.47 74.8 48.01 55.7 48.01 65.25 31.47"/><polygon class="cls-7" points="50.19 48.01 56.3 58.59 44.08 58.59 50.19 48.01"/><path class="cls-7" d="M65.43,64.63l-6.11,7.06-6.11-7.06h-5.9L41.2,71.69l-6.11-7.06H35a15.24,15.24,0,0,0,30.48,0Z"/></svg>