<svg id="Layer_1" data-name="Layer 1" xmlns="http://www.w3.org/2000/svg" viewBox="0 0 100 100"><defs><style>.cls-1{fill:#009502;}.cls-2{fill:#005c01;}.cls-3{fill:#004e4f;}.cls-4{fill:#008081;}.cls-5{fill:#c75b06;}.cls-6{fill:#ff7408;}</style></defs><title>reg-other-pumpkin</title><rect class="cls-1" x="46.22" y="8.1" width="7.43" height="12.04"/><rect class="cls-2" x="46.22" y="8.1" width="3.9" height="12.04"/><circle class="cls-3" cx="30.77" cy="53.87" r="28.48"/><circle class="cls-4" cx="69.23" cy="53.87" r="28.48"/><ellipse class="cls-4" cx="50" cy="54.88" rx="38.46" ry="37.02"/><path class="cls-3" d="M50,91.9c-21.24,0-38.46-16.57-38.46-37s17.22-37,38.46-37"/><circle class="cls-5" cx="30.89" cy="53.87" r="28.48"/><circle class="cls-6" cx="69.23" cy="53.87" r="28.48"/><ellipse class="cls-6" cx="50.13" cy="54.88" rx="38.46" ry="37.02"/><path class="cls-5" d="M50.13,91.9c-21.25,0-38.47-16.57-38.47-37s17.22-37,38.47-37"/><polygon points="35.38 33.02 44.92 49.55 25.83 49.55 35.38 33.02"/><polygon points="65.13 33.02 74.67 49.55 55.58 49.55 65.13 33.02"/><polygon points="50.06 49.55 56.17 60.13 43.95 60.13 50.06 49.55"/><path d="M65.3,66.18l-6.11,7-6.11-7H47.19l-6.11,7-6.11-7h-.15a15.24,15.24,0,1,0,30.48,0Z"/></svg>