<svg id="Layer_1" data-name="Layer 1" xmlns="http://www.w3.org/2000/svg" viewBox="0 0 500 500"><defs><style>.cls-1{opacity:0.7;}.cls-2{fill:#242424;}.cls-3{fill:#009502;}.cls-4{fill:#005c01;}.cls-5{fill:#004e4f;}.cls-6{fill:#008081;}.cls-7{fill:#a2009b;}</style></defs><title>teal-food-mapmarker-f</title><g class="cls-1"><path class="cls-2" d="M249.44,329l.19,96.38L176.14,303.87l-.33-.25,73.82,122,73.54-121.54A118.9,118.9,0,0,1,250,329Z"/><path d="M249.44,329a118.88,118.88,0,0,1-72.6-24.85c-.34-.27-.7-.51-1-.78l.33.55,73.49,121.46Z"/><path class="cls-3" d="M261.06,105.09V75H250.38v29.59Q255.78,104.6,261.06,105.09Z"/><path class="cls-4" d="M250,104.59h.38V75H238.56v30c3.76-.35,7.58-.54,11.44-.54Z"/><path class="cls-5" d="M133.44,216.77v-.06c0,61.93,52.21,112.12,116.56,112.12V297.18h-.19A46.19,46.19,0,0,1,203.63,251h.44l18.52,21.38L241.1,251H250V232.68H231.3l18.51-32.07.19.33V104.46c-3.86,0-7.68.19-11.44.54a118.55,118.55,0,0,0-60.67,23.51,86.3,86.3,0,0,0-9.61,168.24C146.78,276.4,133.44,248.09,133.44,216.77Zm42.94-16.16,28.92-50.1,28.93,50.1Z"/><path class="cls-6" d="M394.59,213.7a86.33,86.33,0,0,0-72.69-85.23,118.55,118.55,0,0,0-60.84-23.38q-5.28-.48-10.68-.5H250v96.35l18.32,31.74H250V251h9l18.52,21.38L296,251h0a46.18,46.18,0,0,1-46,46.18v31.65c-64.35,0-116.52-50.19-116.56-112.12v.06c0,31.32,13.34,59.63,34.84,80q4.08,3.87,8.56,7.35A118.88,118.88,0,0,0,249.44,329H250a118.9,118.9,0,0,0,73.17-24.86c3-2.31,5.83-4.76,8.55-7.34A86.33,86.33,0,0,0,394.59,213.7ZM266.53,200.61l28.92-50.1,28.93,50.1Z"/><polygon class="cls-7" points="205.3 150.51 176.38 200.61 234.23 200.61 205.3 150.51"/><polygon class="cls-7" points="295.45 150.51 266.53 200.61 324.38 200.61 295.45 150.51"/><polygon class="cls-7" points="231.3 232.68 250 232.68 268.32 232.68 250 200.94 249.81 200.61 231.3 232.68"/><path class="cls-7" d="M222.59,272.38,204.07,251h-.44a46.19,46.19,0,0,0,46.18,46.18H250A46.18,46.18,0,0,0,296,251h0l-18.51,21.38L259,251H241.1Z"/></g></svg>