<svg id="Layer_1" data-name="Layer 1" xmlns="http://www.w3.org/2000/svg" viewBox="0 0 100 100"><defs><style>.cls-1{fill:#3d3d3d;}.cls-2{fill:#4a4a4a;}.cls-3{fill:#404040;}.cls-4{fill:#35db35;}.cls-5{fill:#929292;}.cls-6{fill:#727272;}.cls-7{fill:#d1d1d1;}.cls-8{fill:#5eeb5e;}</style></defs><title>cauldron-icon-l</title><circle class="cls-1" cx="49.93" cy="78.9" r="4.65"/><rect class="cls-1" x="1.84" y="39.41" width="7.03" height="10.01" rx="1.94" ry="1.94"/><rect class="cls-1" x="91.23" y="39.41" width="7.03" height="10.01" rx="1.94" ry="1.94"/><path class="cls-2" d="M21.48,70.79a9.53,9.53,0,0,0-6.14-4.53,9.57,9.57,0,0,1-2.45,14.61,9.73,9.73,0,0,1-2.64,1,2.71,2.71,0,1,0-3.64.69A9.58,9.58,0,0,0,21.48,70.79Z"/><path class="cls-2" d="M78.38,70.79a9.55,9.55,0,0,1,6.15-4.53,9,9,0,0,0-1.07,1.49A9.61,9.61,0,0,0,87,80.87a9.79,9.79,0,0,0,2.65,1,2.66,2.66,0,0,1-.53-1.59,2.71,2.71,0,1,1,4.17,2.28A9.58,9.58,0,0,1,78.38,70.79Z"/><ellipse class="cls-2" cx="50.05" cy="44.41" rx="44.69" ry="36.3"/><ellipse class="cls-3" cx="50.05" cy="20.59" rx="44.69" ry="12.48"/><ellipse class="cls-4" cx="50.05" cy="18.35" rx="35.76" ry="8.06"/><ellipse class="cls-5" cx="50.05" cy="49.19" rx="14.81" ry="14.25"/><polygon class="cls-5" points="50.1 75.74 35.79 52.09 64.41 52.09 50.1 75.74"/><polyline class="cls-6" points="50.02 75.72 35.71 52.07 50.02 52.07"/><path class="cls-6" d="M50.05,63.44c-8.18,0-14.81-6.38-14.81-14.25s6.63-14.26,14.81-14.26"/><ellipse class="cls-7" cx="50.05" cy="49.19" rx="7.4" ry="7.13"/><path class="cls-8" d="M39.88,20.25a6.26,6.26,0,0,1-9.28,0s0,.08,0,.12a4.65,4.65,0,1,1,9.3,0S39.88,20.29,39.88,20.25Z"/><path class="cls-8" d="M69.5,20.25a6.26,6.26,0,0,1-9.28,0s0,.08,0,.12a4.65,4.65,0,0,1,9.3,0S69.5,20.29,69.5,20.25Z"/><path class="cls-8" d="M54.69,13.66a6.26,6.26,0,0,1-9.28,0s0,.08,0,.12a4.65,4.65,0,0,1,9.3,0S54.69,13.7,54.69,13.66Z"/></svg>