<svg xmlns="http://www.w3.org/2000/svg" viewBox="0 0 300 300"><defs><style>.cls-1{fill:#45ff4a;}.cls-2{fill:#28942b;}.cls-3{fill:#aae3ab;}</style></defs><title>CTHULU</title><g id="Layer_2" data-name="Layer 2"><path class="cls-1" d="M14.11,139.5c5,0,9.3,2.14,11.43,5.26l.34,0a19,19,0,0,1,8.29-1.74c5.24,0,9.68,1.76,11.32,4.2l1.38.17c2.69-2.26,7.23-3.74,12.4-3.74a22.57,22.57,0,0,1,9.85,2.1l-17-18.56L33,122.06,5.19,142.21h0A15.25,15.25,0,0,1,14.11,139.5Z"/><polygon class="cls-2" points="76.22 153.12 44.11 107.13 34.91 115.18 76.22 153.12"/><polygon class="cls-2" points="1.61 144.16 43.99 107.09 50.99 117.1 1.61 144.16"/><polygon class="cls-2" points="46.53 152.79 40.51 113.7 47.4 113.25 46.53 152.79"/><polygon class="cls-2" points="21.02 151.38 45.79 120.53 40.04 116.69 21.02 151.38"/><path class="cls-3" d="M49.86,115.38,44.05,107l-8.9,7.85c-.07,0-.11.06-.11.1,0,.32,3,1.53,7.09,1.53s7.79-.67,7.79-1A.1.1,0,0,0,49.86,115.38Z"/><path class="cls-1" d="M285.09,144.2c-5,0-9.29,2.15-11.43,5.26l-.33,0a19.05,19.05,0,0,0-8.29-1.73c-5.24,0-9.69,1.75-11.32,4.19l-1.38.17c-2.69-2.25-7.24-3.74-12.4-3.74a22.5,22.5,0,0,0-9.86,2.11l17-18.57,19.17-5.16L294,146.91h0A15.35,15.35,0,0,0,285.09,144.2Z"/><polygon class="cls-2" points="222.98 157.82 255.1 111.83 264.3 119.88 222.98 157.82"/><polygon class="cls-2" points="297.59 148.87 255.22 111.79 248.22 121.81 297.59 148.87"/><polygon class="cls-2" points="252.68 157.5 258.7 118.41 251.81 117.95 252.68 157.5"/><polygon class="cls-2" points="278.18 156.08 253.42 125.23 259.16 121.4 278.18 156.08"/><path class="cls-3" d="M249.34,120.08l5.82-8.41,8.9,7.85c.06,0,.11.07.11.1,0,.33-3,1.54-7.09,1.54s-7.79-.68-7.79-1C249.29,120.13,249.31,120.11,249.34,120.08Z"/></g><g id="Layer_1" data-name="Layer 1"><path class="cls-1" d="M242.25,113.75C242.25,71.09,201,36.5,150,36.5S57.75,71.09,57.75,113.75c0,29.19,19.34,54.6,47.87,67.74-4.3,11-2.5,22.1,4.88,26.36C117,211.59,125.9,209,133,202c2.25,10.61,9,18.31,17,18.31,8.46,0,15.53-8.58,17.37-20.1,7.27,8.26,17.13,11.67,24.15,7.62,7.56-4.37,9.27-15.93,4.55-27.16C223.67,167.34,242.25,142.36,242.25,113.75Z"/><ellipse cx="111.98" cy="119.17" rx="13.75" ry="20.25" transform="translate(-44.58 71.95) rotate(-30)"/><ellipse cx="188.02" cy="119.17" rx="20.25" ry="13.75" transform="matrix(0.5, -0.87, 0.87, 0.5, -9.19, 222.41)"/><ellipse class="cls-1" cx="150" cy="200.17" rx="17.83" ry="26"/><ellipse class="cls-1" cx="150" cy="204.33" rx="17.83" ry="26"/><path class="cls-1" d="M153.25,263.75h-6.5c-5.61,0-14.58-9-14.58-14.58v-42A10.16,10.16,0,0,1,142.33,197h15.34a10.16,10.16,0,0,1,10.16,10.17v42C167.83,254.78,158.86,263.75,153.25,263.75Z"/><rect class="cls-1" x="171.09" y="173.17" width="35.67" height="62.33" rx="10.17" ry="10.17" transform="translate(-76.86 121.84) rotate(-30)"/><path class="cls-1" d="M122.61,168.49l13.28,7.66A10.17,10.17,0,0,1,139.61,190l-21,36.37c-2.81,4.87-8.41,17.54-13.28,14.73L89.67,230.48c-4.87-2.81-4.75-17-2-21.9l21-36.37A10.16,10.16,0,0,1,122.61,168.49Z"/><path class="cls-1" d="M179.69,172.44l-13.28,7.67A10.16,10.16,0,0,0,162.69,194l21,36.37c2.8,4.86,8.41,17.54,13.27,14.73l15.67-10.67c4.86-2.81,4.75-17,1.94-21.89l-21-36.38A10.16,10.16,0,0,0,179.69,172.44Z"/></g></svg>