<svg id="Layer_1" data-name="Layer 1" xmlns="http://www.w3.org/2000/svg" viewBox="0 0 100 100"><defs><style>.cls-1,.cls-2,.cls-3,.cls-4,.cls-5{stroke:#000;stroke-miterlimit:10;}.cls-2{fill:#ffff12;}.cls-3{fill:#f06e07;}.cls-4{fill:#f2f2f2;}.cls-5{fill:#fff;}</style></defs><title>favicon</title><path class="cls-1" d="M19.71,36.72H80.29A30.56,30.56,0,0,0,50,10.15h0A30.56,30.56,0,0,0,19.71,36.72Z"/><path class="cls-1" d="M19.44,40.71a30.47,30.47,0,0,0,3.13,13.48,10.62,10.62,0,0,0,1.65,2.9l4.87,6.19H70.91l4.87-6.19a10.62,10.62,0,0,0,1.65-2.9,30.47,30.47,0,0,0,3.13-13.48,29.28,29.28,0,0,0-.27-4H19.71A29.28,29.28,0,0,0,19.44,40.71Z"/><polyline class="cls-1" points="50.01 89.85 50.01 89.85 70.91 63.28 70.83 63.28 55.08 63.28 42.71 63.28 29.16 63.28 29.09 63.28 49.99 89.85 49.99 89.85"/><path class="cls-2" d="M19.71,36.72H80.29A30.56,30.56,0,0,0,50,10.15h0A30.56,30.56,0,0,0,19.71,36.72Z"/><path class="cls-3" d="M19.44,40.71a30.47,30.47,0,0,0,3.13,13.48,10.62,10.62,0,0,0,1.65,2.9l4.87,6.19H70.91l4.87-6.19a10.62,10.62,0,0,0,1.65-2.9,30.47,30.47,0,0,0,3.13-13.48,29.28,29.28,0,0,0-.27-4H19.71A29.28,29.28,0,0,0,19.44,40.71Z"/><polyline class="cls-4" points="50.01 89.85 50.01 89.85 70.91 63.28 70.83 63.28 55.08 63.28 42.71 63.28 29.16 63.28 29.09 63.28 49.99 89.85 49.99 89.85"/><circle class="cls-5" cx="50" cy="40.71" r="12.86"/><rect x="49.6" y="89.7" width="0.8" height="0.46"/></svg>