<svg xmlns="http://www.w3.org/2000/svg" viewBox="0 0 100 100"><defs><style>.cls-1{fill:#005eb9;stroke:#000;stroke-miterlimit:10;stroke-width:2px;}.cls-2{fill:#dbdbdb;}.cls-3{fill:#ccc;}</style></defs><title>map-icon-vec</title><g id="Layer_3" data-name="Layer 3"><ellipse class="cls-1" cx="49.98" cy="35.3" rx="35.42" ry="34.09"/><polygon class="cls-1" points="50.1 98.79 15.88 42.23 84.32 42.23 50.1 98.79"/><polyline class="cls-1" points="49.93 98.75 15.7 42.19 49.93 42.19"/><path class="cls-1" d="M50,69.38c-19.56,0-35.41-15.26-35.41-34.08S30.42,1.21,50,1.21"/><ellipse class="cls-1" cx="49.98" cy="35.3" rx="14.17" ry="13.63"/><ellipse class="cls-1" cx="32.28" cy="18.67" rx="7.08" ry="6.82"/><ellipse class="cls-1" cx="67.69" cy="18.67" rx="7.08" ry="6.82"/><ellipse class="cls-1" cx="14.6" cy="33.48" rx="5.18" ry="8.29" transform="translate(-21.7 29.38) rotate(-60)"/><ellipse class="cls-1" cx="85.4" cy="33.92" rx="8.29" ry="5.18" transform="translate(-5.52 47.24) rotate(-30)"/></g><g id="Layer_1" data-name="Layer 1"><ellipse class="cls-2" cx="49.99" cy="35.3" rx="35.42" ry="34.09"/><polygon class="cls-2" points="50.11 98.79 15.88 42.23 84.33 42.23 50.11 98.79"/><polyline class="cls-3" points="49.94 98.75 15.71 42.19 49.94 42.19"/><path class="cls-3" d="M50,69.38c-19.56,0-35.41-15.26-35.41-34.08S30.43,1.21,50,1.21"/><ellipse cx="49.99" cy="35.3" rx="14.17" ry="13.63"/><ellipse cx="32.28" cy="18.67" rx="7.08" ry="6.82"/><ellipse cx="67.7" cy="18.67" rx="7.08" ry="6.82"/><ellipse class="cls-3" cx="14.61" cy="33.48" rx="5.18" ry="8.29" transform="translate(-21.69 29.39) rotate(-60)"/><ellipse class="cls-2" cx="85.41" cy="33.92" rx="8.29" ry="5.18" transform="translate(-5.51 47.25) rotate(-30)"/></g></svg>