<svg xmlns="http://www.w3.org/2000/svg" viewBox="0 0 300 300"><defs><style>.cls-1{fill:#170300;}.cls-2{fill:#f6ff2e;}.cls-3{fill:#ffe38b;}</style></defs><title>MUMMY</title><g id="Layer_1" data-name="Layer 1"><ellipse class="cls-1" cx="156.75" cy="124.63" rx="82.81" ry="94.22"/><circle class="cls-2" cx="131.12" cy="105.72" r="14.69"/><circle class="cls-2" cx="182.06" cy="105.72" r="14.69"/><rect class="cls-3" x="48.85" y="50.61" width="167.06" height="22.64" rx="7.57" ry="7.57" transform="translate(-13.23 74.49) rotate(-30)"/><rect class="cls-3" x="59.66" y="37.25" width="125.3" height="14.45" rx="7.23" ry="7.23" transform="translate(-5.85 67.11) rotate(-30)"/><rect class="cls-3" x="40.56" y="71.11" width="208.83" height="25.24" rx="7.73" ry="7.73" transform="translate(-22.44 83.7) rotate(-30)"/><rect class="cls-3" x="66.11" y="141" width="181.28" height="25.25" rx="8.77" ry="8.77"/><rect class="cls-3" x="73.58" y="169.62" width="167.06" height="19.5" rx="7.39" ry="7.39"/><rect class="cls-3" x="88.48" y="192.5" width="137.25" height="18" rx="8.38" ry="8.38"/><rect class="cls-3" x="121.23" y="213.25" width="71.03" height="12.78" rx="6.39" ry="6.39"/></g></svg>