<svg xmlns="http://www.w3.org/2000/svg" viewBox="0 0 300 300"><defs><style>.cls-1{fill:#189c00;}.cls-2{fill:#106600;}.cls-3{fill:#000b45;}.cls-4{fill:#5ce0c6;}.cls-5{fill:#ff7a00;}.cls-6{fill:#fff62e;}.cls-7{fill:none;stroke:#fff62e;stroke-miterlimit:10;}.cls-8{fill:#2e34ff;}</style></defs><title>octocat</title><g id="Layer_2" data-name="Layer 2"><rect class="cls-1" x="98.1" y="27.27" width="13.92" height="20.15"/><rect class="cls-2" x="98.1" y="27.27" width="6.96" height="23.08"/><rect class="cls-3" x="169.9" y="152.43" width="83.33" height="79.24"/></g><g id="Layer_1" data-name="Layer 1"><path d="M272.09,238.19c-5,0-9.21-7.17-10-16.56V181.1c0-.19,0-.39,0-.58s0-.4,0-.6c0-10.31-7.58-18.67-16.93-18.67H178c-9.36,0-16.93,8.36-16.93,18.67,0,.2,0,.4,0,.6s0,.39,0,.58v40.53c-.81,9.39-5,16.56-10,16.56-2,0-3.85-1.14-5.42-3.08.08,9.42,7,15.48,15.58,15.48,6.74,0,12.47-3.78,14.64-10a9.49,9.49,0,0,0,1.36-4.91V198.55h0c0-.33,0-.65,0-1,0-7.87,4.42-14.6,10.68-17.34v58h0c0,.18,0,.36,0,.55,0,11-4.55,19.85-10.16,19.85-2,0-3.84-1.14-5.41-3.07.07,9.42,7,15.48,15.57,15.48,7,0,12.94-4.07,14.89-10.71a9.33,9.33,0,0,0,1.12-4.46V178.9h15.35v76.93a9.44,9.44,0,0,0,1.11,4.46c2,6.64,7.88,10.71,14.89,10.71,8.56,0,15.5-6.06,15.57-15.48-1.57,1.93-3.42,3.07-5.41,3.07-5,0-9.22-7.18-10-16.6V180.3c6.17,2.79,10.53,9.46,10.53,17.27,0,.33,0,.65-.05,1h.05V235.7a9.39,9.39,0,0,0,1.36,4.91c2.16,6.2,7.89,10,14.64,10,8.55,0,15.5-6.06,15.57-15.48C275.93,237.05,274.08,238.19,272.09,238.19Z"/><path d="M196.4,168.21c0,2.59-23.59,10.84-41.25,7.25-8-1.62-8-2.3-16.75-8-2.94-1.92-9.44-9-17.25-13.25-9.27-5.05-23.3-3.42-23.3-5.68,0-2,13.54-3.86,24.8-.64,9.71,2.77,16.24,11.09,20.25,12.57,9.56,3.55,7.37,4,17,5.25C174.61,167.66,196.4,165.51,196.4,168.21Z"/><ellipse class="cls-4" cx="107.51" cy="147.57" rx="2.27" ry="2.61" transform="translate(-73.74 125.59) rotate(-47.01)"/><path class="cls-5" d="M128,49.25a39.43,39.43,0,0,0-5.12.35,36,36,0,0,0-37,0,39.46,39.46,0,0,0-5.13-.35C57.2,49.25,38.1,70.32,38.1,96.32s19.1,47.07,42.67,47.07A39.46,39.46,0,0,0,85.9,143a36,36,0,0,0,37,0,39.43,39.43,0,0,0,5.12.35c23.57,0,42.68-21.08,42.68-47.07S151.59,49.25,128,49.25Z"/><ellipse class="cls-6" cx="84.55" cy="85.77" rx="11.84" ry="14"/><ellipse class="cls-6" cx="122.15" cy="85.77" rx="11.84" ry="14"/><ellipse class="cls-5" cx="125.71" cy="85.77" rx="8.29" ry="9.8"/><ellipse class="cls-5" cx="88.1" cy="85.77" rx="8.29" ry="9.8"/><circle class="cls-6" cx="104.4" cy="109.04" r="3.94"/><path class="cls-5" d="M86,58.38,64.78,63.16a5.5,5.5,0,0,1-6.47-7l6.45-20.74a5.51,5.51,0,0,1,9.31-2.1L88.81,49.26A5.52,5.52,0,0,1,86,58.38Z"/><path class="cls-5" d="M124.14,58.38l21.19,4.78a5.5,5.5,0,0,0,6.47-7l-6.45-20.74a5.51,5.51,0,0,0-9.31-2.1L121.3,49.26A5.52,5.52,0,0,0,124.14,58.38Z"/><path class="cls-7" d="M113.06,122.25a8,8,0,0,1-8,8"/><path class="cls-7" d="M97.05,122.25a8,8,0,0,0,8,8"/><path class="cls-8" d="M290,236l-26.46-40.07V156.6a4.43,4.43,0,0,0-3.92-5.61l-24.43-3.53,9.39-5.34c2.1-1.18,1.16-4.1-1.31-4.1h-65c-2.47,0-3.4,2.92-1.31,4.1l7.7,4.38-22.74,3.29A4.43,4.43,0,0,0,158,155.4v41.43l-24,38h55.41V175.23l8.87-21,11.18,6.34a2.66,2.66,0,0,0,2.62,0l10.76-6.11,9.29,22V236Z"/><ellipse class="cls-4" cx="115.26" cy="149.09" rx="2.27" ry="2.26" transform="translate(-72.39 131.74) rotate(-47.01)"/><ellipse class="cls-4" cx="122.15" cy="150.57" rx="2.27" ry="2.61" transform="matrix(0.68, -0.73, 0.73, 0.68, -71.28, 137.25)"/><ellipse class="cls-4" cx="129.3" cy="154.57" rx="2.27" ry="2.61" transform="translate(-71.93 143.75) rotate(-47.01)"/><ellipse class="cls-4" cx="135.28" cy="158.82" rx="2.27" ry="2.61" transform="translate(-73.14 149.48) rotate(-47.01)"/><ellipse class="cls-4" cx="141.69" cy="163.57" rx="2.27" ry="2.61" transform="translate(-74.57 155.68) rotate(-47.01)"/><ellipse class="cls-4" cx="149.58" cy="167.17" rx="2.27" ry="2.61" transform="translate(-74.69 162.59) rotate(-47.01)"/></g></svg>