<svg xmlns="http://www.w3.org/2000/svg" viewBox="0 0 300 300"><defs><style>.cls-1{fill:#189c00;}.cls-2{fill:#106600;}.cls-3{fill:#5ce0c6;}.cls-4{fill:#ff7a00;}.cls-5{fill:#fff62e;}</style></defs><title>Artboard 1</title><g id="Layer_2" data-name="Layer 2"><rect class="cls-1" x="98.1" y="27.27" width="13.92" height="20.15"/><rect class="cls-2" x="98.1" y="27.27" width="6.96" height="23.08"/></g><g id="Layer_1" data-name="Layer 1"><path d="M272.09,231c-5,0-9.21-6.49-10-15V179.25c0-.18,0-.36,0-.53s0-.36,0-.54a16.93,16.93,0,0,0-16.93-16.93H178a16.92,16.92,0,0,0-16.93,16.93c0,.18,0,.36,0,.54s0,.35,0,.53V216c-.81,8.52-5,15-10,15a7.34,7.34,0,0,1-5.42-2.79c.08,8.55,7,14,15.58,14,6.74,0,12.47-3.43,14.64-9.05a8,8,0,0,0,1.36-4.45V195.06h0c0-.3,0-.59,0-.89a16.9,16.9,0,0,1,10.68-15.72V231h0c0,.17,0,.33,0,.5,0,9.94-4.55,18-10.16,18a7.34,7.34,0,0,1-5.41-2.79c.07,8.55,7,14,15.57,14,7,0,12.94-3.69,14.89-9.71a7.86,7.86,0,0,0,1.12-4V177.25h15.35V247a8,8,0,0,0,1.11,4c2,6,7.88,9.71,14.89,9.71,8.56,0,15.5-5.49,15.57-14a7.34,7.34,0,0,1-5.41,2.79c-5,0-9.22-6.51-10-15.05V178.52a16.93,16.93,0,0,1,10.53,15.66c0,.3,0,.59-.05.89h.05v33.69a8,8,0,0,0,1.36,4.45c2.16,5.62,7.89,9.05,14.64,9.05,8.55,0,15.5-5.49,15.57-14A7.34,7.34,0,0,1,272.09,231Z"/><path d="M196.4,168.21c0,2.59-23.59,10.84-41.25,7.25-8-1.62-8-2.3-16.75-8-2.94-1.92-9.44-9-17.25-13.25-9.27-5.05-23.3-3.42-23.3-5.68,0-2,13.54-3.86,24.8-.64,9.71,2.77,16.24,11.09,20.25,12.57,9.56,3.55,7.37,4,17,5.25C174.61,167.66,196.4,165.51,196.4,168.21Z"/><circle class="cls-3" cx="119.93" cy="149.8" r="2.77"/><circle class="cls-3" cx="127.55" cy="152.95" r="3.15"/><circle class="cls-3" cx="134.06" cy="158.38" r="3.36"/><circle class="cls-3" cx="143.7" cy="164.44" r="3.23"/><path class="cls-4" d="M128.68,49.25a39.43,39.43,0,0,0-5.12.35,36.06,36.06,0,0,0-37,0,39.43,39.43,0,0,0-5.12-.35c-23.57,0-42.68,21.07-42.68,47.07s19.11,47.07,42.68,47.07a39.43,39.43,0,0,0,5.12-.35,36.06,36.06,0,0,0,37,0,39.43,39.43,0,0,0,5.12.35c23.57,0,42.68-21.08,42.68-47.07S152.25,49.25,128.68,49.25Z"/><ellipse class="cls-5" cx="84.55" cy="85.77" rx="11.84" ry="14"/><ellipse class="cls-5" cx="122.15" cy="85.77" rx="11.84" ry="14"/><ellipse class="cls-4" cx="125.71" cy="85.77" rx="8.29" ry="9.8"/><ellipse class="cls-4" cx="88.1" cy="85.77" rx="8.29" ry="9.8"/><circle class="cls-5" cx="104.4" cy="109.04" r="3.94"/><path class="cls-4" d="M86,58.38,64.78,63.16a5.5,5.5,0,0,1-6.47-7l6.45-20.74a5.51,5.51,0,0,1,9.31-2.1L88.81,49.26A5.52,5.52,0,0,1,86,58.38Z"/><path class="cls-4" d="M124.14,58.38l21.19,4.78a5.5,5.5,0,0,0,6.47-7l-6.45-20.74a5.51,5.51,0,0,0-9.31-2.1L121.3,49.26A5.52,5.52,0,0,0,124.14,58.38Z"/></g></svg>