<svg xmlns="http://www.w3.org/2000/svg" viewBox="0 0 100 100"><defs><style>.cls-1{fill:#f06e07;}.cls-2{fill:#bd4706;}.cls-3{fill:#552142;}.cls-4{fill:#300045;}.cls-5{fill:#372142;}.cls-6{fill:#f0a707;}.cls-7{fill:#170b00;}.cls-8{fill:none;}.cls-9{fill:#ffff12;}</style></defs><title>treatbag-icon-l</title><g id="Layer_1" data-name="Layer 1"><polygon class="cls-1" points="68.8 35.15 68.8 35.62 67.7 35.62 67.7 36.83 68.8 36.83 68.8 38.19 69.41 38.19 69.41 35.15 68.8 35.15"/><path class="cls-1" d="M69.46,88.48V36.6H63.6V88.81C65.56,88.72,67.51,88.58,69.46,88.48Z"/><polygon class="cls-2" points="45.91 37.08 54.89 47.71 36.93 47.71 45.91 37.08"/><polyline class="cls-2" points="63.6 47.23 54.09 47.23 63.6 36.6"/><ellipse class="cls-3" cx="42.7" cy="44.5" rx="8.69" ry="6.14"/><circle class="cls-3" cx="60.9" cy="44.31" r="6.81"/><ellipse class="cls-3" cx="51.7" cy="42.94" rx="5.79" ry="6.56"/><ellipse class="cls-4" cx="48.07" cy="45.56" rx="6.82" ry="5.94"/><circle class="cls-4" cx="63.64" cy="43.45" r="5.27"/><ellipse class="cls-5" cx="50.63" cy="43.47" rx="6.25" ry="5.28"/><ellipse class="cls-4" cx="56.04" cy="44.5" rx="4.79" ry="6.31"/><polygon class="cls-6" points="60.95 44.45 52.92 34.95 44.89 44.45 36.39 34.95 36.39 45.52 36.39 45.58 36.39 89.77 69.45 89.77 69.45 45.58 69.45 45.52 69.45 34.95 60.95 44.45"/><rect class="cls-2" x="32.93" y="43.47" width="1.08" height="37.75"/><rect class="cls-7" x="65.7" y="35" width="1.89" height="1.38"/></g><g id="Layer_2" data-name="Layer 2"><rect class="cls-7" x="32.46" y="34.94" width="1.89" height="1.38"/><path class="cls-7" d="M50,17.63c8.66,0,15.68,7.78,15.68,17.37h1.88c0-10.75-7.86-19.46-17.56-19.46S32.46,24.25,32.46,35h1.89C34.35,25.41,41.36,17.63,50,17.63Z"/><polygon class="cls-1" points="69.46 34.94 63.6 36.6 67.89 36.6 69.46 34.95 69.46 34.94 69.46 34.94"/><polygon class="cls-1" points="30.54 36.6 30.54 36.6 30.54 88.08 30.54 88.08 36.4 89.75 36.4 34.94 30.54 36.6"/><polygon class="cls-8" points="54.3 72.03 54.3 72.03 54.3 72.03 54.3 72.03"/><path d="M60.82,59.74a6.73,6.73,0,1,0-11,5.23l4.37,7.17.15.26.19-.37,4-7.24A6.7,6.7,0,0,0,60.82,59.74ZM54.3,72Z"/><ellipse class="cls-9" cx="54.37" cy="59.74" rx="3.12" ry="3.37"/></g></svg>